<svg viewBox="200 65 845 530" xmlns="http://www.w3.org/2000/svg" xmlns:xlink="http://www.w3.org/1999/xlink" fill-rule="evenodd" clip-rule="evenodd" stroke-linecap="round" stroke-linejoin="round" stroke-miterlimit="1.414"><g stroke-width=".5" stroke="#000"><path d="M961 195l1 32 8-12-9-20z" fill="#6D8AB2"/><path d="M983 176.5L961 195l9 20 13-38.5z" fill="#8FB8E3"/><path d="M993 207l-10-30.5-13 38.5 23-8z" fill="#9DCAEA"/><path d="M991 238l2-31-23 8 21 23z" fill="#6781A9"/><path d="M962 227l8-12 21 23-29-11z" fill="#556A93"/><path d="M1004 249l34-19 4-20-18 12-33 16-29-11 42 22z" fill="#16173F"/><path d="M1014 187l-21 20 31 15-10-35z" fill="#60769D"/><path d="M991 238l33-16-31-15-2 31z" fill="#4A5C85"/><path d="M1039 187h-25l10 35 15-35z" fill="#364270"/><path d="M1042 210l-18 12 15-35 3 23z" fill="#323E6B"/><path d="M1005 165l9 22h25l-34-22z" fill="#556A93"/><path d="M983 176.5l10 30.5 21-20-31-10.5z" fill="#A8D1E4"/><path d="M984 162l-23 33 22-18.5 1-14.5z" fill="#85AAD4"/><path d="M1005 165l-22 11.5 1-14.5 21 3z" fill="#80A4CE"/><path d="M1011 162h-27l21 3 6-3z" fill="#6D8AB2"/><path d="M1038 176.5l1 10.5-34-22 6-3 27 14.5z" fill="#364270"/><path d="M1005 165l-22 11.5 31 10.5-9-22z" fill="#85AAD4"/></g><g fill="#9C97B6" stroke="#000"><path d="M1005 219l-21 40-29 43-32 39-11 13-20 21-13 13-17 17-1 8 25-25 30-32 11-13 31-38 30-43 21-41M1021 167v-9l-7-20-1-3-14-13-26-10.745L958 108l-15-2h-14l-17 2-23 3-36 8-50 16-47 19-41 18 4 2.5 40-17.5 46-18 50-16 36-8 22-3 16-1.745 14-.255 11 1 18 4 25 10 12 13 2 2 6 18v7M197 596.255L217 565l22-29 27-32 25-27 31-32 26-24h1l2 3-3 2-24 22-31 32-24 26-27 32-22 29-18 29"/></g><path d="M410 344l61-14 23 98-95 19 11-103z" fill="#BF1849" stroke-width=".5" stroke="#000"/><path d="M365 330c11.78 38.115 23.02 78.32 34 117l11-103-45-14z" fill="#981844" stroke-width=".5" stroke="#000"/><path d="M346 406l53 41-34-117-19 76z" fill="#A81846" stroke-width=".5" stroke="#000"/><path d="M356 505l43-58-53-41 10 99zM371 562l28-115-43 58 15 57z" fill="#801844" stroke-width=".5" stroke="#000"/><path d="M425 547l-26-100-28 115 54-15z" fill="#771842" stroke-width=".5" stroke="#000"/><path d="M415 276l-27-44-23 98 45 14 5-68z" fill="#B81848" stroke-width=".5" stroke="#000"/><path d="M471 330l4-86-60 32 56 54z" fill="#D7184C" stroke-width=".5" stroke="#000"/><path d="M410 344l5-68 56 54-61 14zM458 209l-43 67-27-44 70-23z" fill="#D7184C" stroke-width=".5" stroke="#000"/><path d="M458 176v33l-33 11 33-44z" fill="#9F1846" stroke-width=".5" stroke="#000"/><path d="M517 179l-42 65-60 32 43-67 59-30z" fill="#C81749" stroke-width=".5" stroke="#000"/><path d="M458 176l91-30-33 27-58 36v-33z" fill="#B81848" stroke-width=".5" stroke="#000"/><path d="M571 166l-54 13-59 30 58-36 55-7z" fill="#981844" stroke-width=".5" stroke="#000"/><path d="M549 146l22 20-55 7 33-27z" fill="#C81749" stroke-width=".5" stroke="#000"/><path d="M577 196l-6-30-54 13 60 17z" fill="#BF1849" stroke-width=".5" stroke="#000"/><path d="M475 244l37 80-18 104-23-98 4-86z" fill="#F73B4D" stroke-width=".5" stroke="#000"/><path d="M569 249l-57 75-37-80 94 5z" fill="#FF4D4D" stroke-width=".5" stroke="#000"/><path d="M577 196l-102 48 42-65 60 17z" fill="#EB2A4C" stroke-width=".5" stroke-linecap="butt" stroke="#000"/><path d="M648 234l-136 90 57-75-94-5 102-48 71 38z" fill="#F73B4D" stroke-width=".5" stroke="#000"/><path d="M689 300l-177 24 136-90 41 66z" fill="#D74049" stroke-width=".5" stroke="#000"/><path d="M569 359l-57-35 177-24-120 59z" fill="#F44F4C" stroke-width=".5" stroke="#000"/><path d="M494 428l75-69-57-35-18 104z" fill="#FF614D" stroke-width=".5" stroke="#000"/><path d="M574 467l-5-108-75 69 80 39z" fill="#A81846" stroke-width=".5" stroke="#000"/><path d="M447 519l47-91-95 19 48 72z" fill="#BF1849" stroke-width=".5" stroke="#000"/><path d="M425 547l22-28-48-72 26 100z" fill="#551841" stroke-width=".5" stroke="#000"/><path d="M448 591l-23-44-54 15 77 29z" fill="#16173F" stroke-width=".5" stroke="#000"/><path d="M502 585l-77-38 48 92 29-54z" fill="#391841" stroke-width=".5" stroke="#000"/><path d="M434 586l26 28-12-23-14-5z" fill="#16173F" stroke-width=".5" stroke="#000"/><path d="M571 543l-69 42 98 52-29-94z" fill="#5F1841" stroke-width=".5" stroke="#000"/><path d="M653 570l-53 67-29-94 82 27z" fill="#551841" stroke-width=".5" stroke="#000"/><path d="M779 491l-132 26-76 26 82 27 126-79zM447 519l-22 28 77 38 69-42-124-24z" fill="#16173F" stroke-width=".5" stroke="#000"/><path d="M574 467l-127 52 124 24 3-76z" fill="#551841" stroke-width=".5" stroke="#000"/><path d="M494 428l-47 91 46.062-18.86L574 467l-80-39z" fill="#8D1844" stroke-width=".5" stroke="#000"/><path d="M648 414l-74 53-5-108 79 55z" fill="#BF1849" stroke-width=".5" stroke="#000"/><path d="M689 300l-120 59 79 55 41-114z" fill="#F84B4C" stroke-width=".5" stroke="#000"/><path d="M647 517l1-103-74 53 73 50z" fill="#8D1844" stroke-width=".5" stroke="#000"/><path d="M571 543l3-76 73 50-76 26z" fill="#801844" stroke-width=".5" stroke="#000"/><path d="M648 414l-1 103 132-26-131-77z" fill="#401841" stroke-width=".5" stroke="#000"/><path d="M779 406v85l-131-77 131-8z" fill="#5F1841" stroke-width=".5" stroke="#000"/><path d="M725 397l-77 17 131-8-54-9z" fill="#8D1844" stroke-width=".5" stroke="#000"/><path d="M689 300l-41 114 77-17-36-97z" fill="#401841" stroke-width=".5" stroke="#000"/><path d="M779 493l-38 112-87-35 125-77z" fill="none" stroke="#000"/><path d="M839 457l-60 34 42-47 18 13z" fill="#401841" stroke-width=".5" stroke="#000"/><path d="M865 396l-44 5v43l18 13 26-61z" fill="#391841" stroke-width=".5" stroke="#000"/><path d="M779 406v85l42-47v-43l-42 5z" fill="#401841" stroke-width=".5" stroke="#000"/><path d="M743 263l-54 37 36 97 54 9-36-143z" fill="#5F1841" stroke-width=".5" stroke="#000"/><path d="M773 235l-30 28 36 143 21-85-27-86z" fill="#16173F" stroke-width=".5" stroke="#000"/><path d="M865 396l-65-75-21 85 42-5 44-5z" fill="#2C173F" stroke-width=".5" stroke="#000"/><path d="M818 259l-18 62 65 75-47-137z" fill="#391841" stroke-width=".5" stroke="#000"/><path d="M761 181l12 54.037L800 321l18-62-57-78z" fill="#6B1842" stroke-width=".5" stroke="#000"/><path d="M648 234l41 66 54-37-95-29z" fill="#9F1846" stroke-width=".5" stroke="#000"/><path d="M633 191l15 43 95 29-110-72z" fill="#8D1844" stroke-width=".5" stroke="#000"/><path d="M571 166l6 30 71 38-15-43-62-25z" fill="#AF1846" stroke-width=".5" stroke="#000"/><path d="M623 152l-52 14 62 25-10-39z" fill="#A81846" stroke-width=".5" stroke="#000"/><path d="M585.5 139l-36.5 7 22 20 52-14-37.5-13z" fill="#9F1846" stroke-width=".5" stroke="#000"/><path d="M629 129l-43.5 10 77.5 19-34-29z" fill="#801844" stroke-width=".5" stroke="#000"/><path d="M623 152l96 20-25-16-65-27 33 29-76.5-19 37.5 13z" fill="#5F1841" stroke-width=".5" stroke="#000"/><path d="M761 181l-42-9-96-20 41 31 109 52-12-54z" fill="#9F1846" stroke-width=".5" stroke="#000"/><path d="M633 191l110 72-79-80-41-31 10 39z" fill="#981844" stroke-width=".5" stroke="#000"/><path d="M773 235l-30 28-79-80 109 52z" fill="#B01846" stroke-width=".5" stroke="#000"/><path d="M761 181l74 82 23 65 7 68-47-137-57-78zM865 396l-16 112-43 48-37 68-88 9-71-9 43-54 86 33 40-112 60-34 26-61z" fill="#16173F" stroke-width=".5" stroke="#000"/><path d="M653 570l86 33 40-112-126 79z" fill="#6B1842" stroke-width=".5" stroke="#000"/><use xlink:href="#a" x="472.567" y="584.567" width="127.866" height="54.866"/></svg>
