<svg height="1000" width="1000" xmlns="http://www.w3.org/2000/svg"><path d="M0 824.002q162.1 19.53 304.668-87.885-66.402 1.953-117.18-39.06T111.32 591.595q17.578 3.906 42.967 1.953 33.2-1.953 48.825-5.86-99.603-33.2-138.663-107.414-23.437-50.778-23.437-103.51 56.637 29.296 91.79 27.343-80.072-68.355-89.837-146.475-5.86-62.496 25.39-134.757Q181.628 247.867 306.62 302.55q93.745 39.06 185.536 39.06-11.718-93.743 25.39-158.192 44.918-70.308 128.897-93.744 54.684-13.67 105.462 2.93t85.932 55.66q60.543-5.86 132.804-48.826-29.294 85.932-91.79 117.18 62.496-9.765 121.086-35.154-9.765 19.53-37.107 52.73t-68.356 56.638q1.953 9.765 1.953 17.577 3.906 109.367-42.966 232.406-80.072 201.16-242.17 302.715-160.147 89.84-382.79 68.356Q87.886 896.262 0 824z"/></svg>
