<svg width="1000" height="1000" xmlns="http://www.w3.org/2000/svg"><title>Layer 1</title><path d="M749.36 1.095H250.642c-137.4 0-249.186 111.41-249.186 248.348v501.11c0 136.93 111.786 248.35 249.186 248.35H749.36c137.4 0 249.182-111.422 249.182-248.35v-501.11c0-136.938-111.783-248.347-249.183-248.347zM906.253 750.55c0 86.215-70.38 156.37-156.894 156.37H250.644c-86.514 0-156.895-70.155-156.895-156.37V426.904h197.145c-14.393 30.443-22.488 64.404-22.488 100.218 0 130.084 106.18 235.898 236.696 235.898 130.513 0 236.695-105.814 236.695-235.897 0-35.813-8.094-69.775-22.49-100.217h186.945V750.55zm-499.41-223.427c0-53.99 44.078-97.923 98.26-97.923 54.184 0 98.258 43.934 98.258 97.923 0 54-44.074 97.926-98.258 97.926-54.18-.002-98.26-43.926-98.26-97.927zm499.41-192.2H642.08c-38.7-27.467-85.954-43.694-136.976-43.694-51.022 0-98.28 16.226-136.973 43.694H93.75v-85.48c0-86.224 70.38-156.368 156.894-156.368H749.36c86.514 0 156.894 70.144 156.894 156.367v85.48zM806.248 148.862h-85.55c-15.232 0-27.687 12.42-27.687 27.595v85.266c0 15.176 12.455 27.595 27.688 27.595h85.55c15.23 0 27.687-12.42 27.687-27.594v-85.265c0-15.176-12.455-27.594-27.687-27.594z"/></svg>